# File produced by Open Asset Import Library (http://www.assimp.sf.net)
# (assimp v5.0.1588609223)

mtllib result.mtl

# 80 vertex positions
v  0.5551272 1.0758418 0.41103154
v  0.23803358 -0.0023214817 0.35964531
v  0.66421682 1.0685358 -0.108846
v  0.34712318 -0.009627521 -0.1602322
v  0.34204626 1.1665754 -0.17782713
v  0.02495262 0.088412285 -0.22921333
v  0.23295666 1.1738815 0.34205037
v  -0.084136993 0.095718294 0.2906642
v  -0.28411233 0.71147329 0.15625
v  -0.15387622 -0.027132528 0.15625
v  -0.28411233 0.71147329 -0.09375
v  -0.15387622 -0.027132528 -0.09375
v  -0.53031427 0.66806126 -0.09375
v  -0.40007815 -0.070544571 -0.09375
v  -0.53031427 0.66806126 0.15625
v  -0.40007815 -0.070544571 0.15625
v  0.21527863 1.0542166 -0.44249076
v  0.21527863 0.13893911 -0.23957863
v  0.10962406 1.0051764 -0.66369689
v  0.10962406 0.089898892 -0.46078479
v  -0.23024139 1.0394782 -0.50897175
v  -0.23024139 0.12420063 -0.3060596
v  -0.12458682 1.0885184 -0.28776556
v  -0.12458682 0.17324086 -0.084853441
v  -0.20726649 0.31870338 0.3125
v  0.046079833 0.042224389 0.3125
v  -0.20726649 0.31870338 -0.0625
v  0.046079833 0.042224389 -0.0625
v  -0.48374549 0.065357059 -0.0625
v  -0.23039916 -0.21112195 -0.0625
v  -0.48374549 0.065357059 0.3125
v  -0.23039916 -0.21112195 0.3125
v  -0.013390794 0.2611706 0.43522766
v  0.11486676 -0.091214135 0.43522766
v  0.39084837 0.40830162 -0.1791364
v  0.51910591 0.055916883 -0.1791364
v  -0.090246066 0.23319754 -0.53762168
v  0.038011476 -0.11918718 -0.53762168
v  -0.49448523 0.086066522 0.076742381
v  -0.36622769 -0.2663182 0.076742381
v  0.36734381 0.39609769 -0.033673827
v  0.31159222 -0.027377687 0.0610185
v  0.35498399 0.30221546 -0.46080333
v  0.29923239 -0.12125991 -0.36611101
v  -0.016807862 0.35116276 -0.46080333
v  -0.072559446 -0.072312593 -0.36611101
v  -0.0044480311 0.44504499 -0.033673827
v  -0.060199615 0.021569632 0.0610185
v  0.44164407 0.075776108 0.47433081
v  0.39311552 -0.10533499 0.47433081
v  0.52004331 0.054769099 0.1082198
v  0.47151476 -0.126342 0.1082198
v  0.22534661 0.13373286 0.040582426
v  0.17681804 -0.047378249 0.040582426
v  0.14694738 0.15473986 0.40669343
v  0.098418817 -0.026371241 0.40669343
v  0.68895113 1.3583658 0.49900955
v  0.28377599 -0.019287348 0.43334943
v  0.7723726 1.3527787 0.10145615
v  0.36719742 -0.02487433 0.035796002
v  0.56735504 1.4151677 0.057559073
v  0.1621798 0.037514627 -0.0081010759
v  0.48393357 1.4207547 0.45511246
v  0.078758344 0.043101579 0.38945234
v  0.075576484 1.2974645 -0.50032711
v  0.075576484 0.077094465 -0.22977763
v  -0.036681488 1.2453593 -0.73535872
v  -0.036681488 0.024989225 -0.46480918
v  -0.33406374 1.2753733 -0.59997416
v  -0.33406374 0.055003263 -0.32942465
v  -0.22180577 1.3274785 -0.36494258
v  -0.22180577 0.1071085 -0.094393089
v  -0.2551209 0.90697771 0.03125
v  -0.10317874 0.045270965 0.03125
v  -0.2551209 0.90697771 -0.15625
v  -0.10317874 0.045270965 -0.15625
v  -0.43977237 0.87441868 -0.15625
v  -0.2878302 0.012711935 -0.15625
v  -0.43977237 0.87441868 0.03125
v  -0.2878302 0.012711935 0.03125

# 174 UV coordinates
vt 0 0 0
vt 0 0.28125 0
vt 0.140625 0 0
vt 0.140625 0.28125 0
vt 0.28125 0 0
vt 0.28125 0.28125 0
vt 0.703125 0.140625 0
vt 0.703125 0 0
vt 0.609375 0.140625 0
vt 0.609375 0 0
vt 0.703125 0.28125 0
vt 0.609375 0.28125 0
vt 0.203125 0.359375 0
vt 0.203125 0.640625 0
vt 0.296875 0.359375 0
vt 0.296875 0.640625 0
vt 0.109375 0.28125 0
vt 0.109375 0.5625 0
vt 0.203125 0.28125 0
vt 0.203125 0.5625 0
vt 0.609375 0.46875 0
vt 0.609375 0.65625 0
vt 0.671875 0.46875 0
vt 0.671875 0.65625 0
vt 0.171875 0.640625 0
vt 0.171875 0.828125 0
vt 0.234375 0.640625 0
vt 0.234375 0.828125 0
vt 0.734375 0.578125 0
vt 0.734375 0.515625 0
vt 0.671875 0.578125 0
vt 0.671875 0.515625 0
vt 0.734375 0.640625 0
vt 0.671875 0.640625 0
vt 0 0.640625 0
vt 0 0.828125 0
vt 0.0625 0.640625 0
vt 0.0625 0.828125 0
vt 0.671875 0.28125 0
vt 0.109375 0.796875 0
vt 0.171875 0.5625 0
vt 0.171875 0.796875 0
vt 0.453125 0.59375 0
vt 0.453125 0.828125 0
vt 0.515625 0.59375 0
vt 0.515625 0.828125 0
vt 0.4375 0.734375 0
vt 0.4375 0.671875 0
vt 0.34375 0.734375 0
vt 0.34375 0.671875 0
vt 0.765625 0.390625 0
vt 0.765625 0.453125 0
vt 0.671875 0.390625 0
vt 0.671875 0.453125 0
vt 0.515625 0 0
vt 0.515625 0.234375 0
vt 0.609375 0.234375 0
vt 0.453125 0.359375 0
vt 0.546875 0.359375 0
vt 0.546875 0.59375 0
vt 0.3984375 0.046875 0
vt 0.3984375 0.09375 0
vt 0.4453125 0.046875 0
vt 0.4453125 0.09375 0
vt 0.3984375 0.3515625 0
vt 0.3984375 0.3984375 0
vt 0.4453125 0.3515625 0
vt 0.4453125 0.3984375 0
vt 0.4140625 0.4453125 0
vt 0.4140625 0.3984375 0
vt 0.3671875 0.4453125 0
vt 0.3671875 0.3984375 0
vt 0.4609375 0.09375 0
vt 0.4609375 0.140625 0
vt 0.4140625 0.09375 0
vt 0.4140625 0.140625 0
vt 0.3984375 0.3046875 0
vt 0.4453125 0.3046875 0
vt 0.3984375 0 0
vt 0.4453125 0 0
vt 0.2890625 0.15625 0
vt 0.2890625 0.203125 0
vt 0.3828125 0.15625 0
vt 0.3828125 0.203125 0
vt 0.2890625 0.25 0
vt 0.3828125 0.25 0
vt 0.1328125 0.234375 0
vt 0.1328125 0.140625 0
vt 0.0546875 0.234375 0
vt 0.0546875 0.140625 0
vt 0.2109375 0.1796875 0
vt 0.2109375 0.2734375 0
vt 0.1328125 0.1796875 0
vt 0.1328125 0.2734375 0
vt 0.3203125 0.046875 0
vt 0.3203125 0.09375 0
vt 0.3203125 0 0
vt 0.3203125 0.1484375 0
vt 0.375 0.09375 0
vt 0.375 0.1484375 0
vt 0.3671875 0.25 0
vt 0.3671875 0.3046875 0
vt 0.421875 0.25 0
vt 0.421875 0.3046875 0
vt 0.125 0.4453125 0
vt 0.125 0.390625 0
vt 0.078125 0.4453125 0
vt 0.078125 0.390625 0
vt 0.171875 0.390625 0
vt 0.171875 0.4453125 0
vt 0.03125 0.390625 0
vt 0.03125 0.4453125 0
vt 0.3828125 0.1875 0
vt 0.3828125 0.2421875 0
vt 0.4296875 0.1875 0
vt 0.4296875 0.2421875 0
vt 0.046875 0.4453125 0
vt 0.046875 0.46875 0
vt 0.09375 0.4453125 0
vt 0.09375 0.46875 0
vt 0.4453125 0.0625 0
vt 0.4453125 0.0859375 0
vt 0.4921875 0.0625 0
vt 0.4921875 0.0859375 0
vt 0.453125 0.1875 0
vt 0.453125 0.140625 0
vt 0.4140625 0.1875 0
vt 0.453125 0.3984375 0
vt 0.453125 0.4453125 0
vt 0.4453125 0.3203125 0
vt 0.4453125 0.34375 0
vt 0.484375 0.3203125 0
vt 0.484375 0.34375 0
vt 0.4453125 0.296875 0
vt 0.484375 0.296875 0
vt 0.109375 0.640625 0
vt 0.28125 0.359375 0
vt 0.390625 0 0
vt 0.390625 0.359375 0
vt 0.34375 0.78125 0
vt 0.28125 0.78125 0
vt 0.28125 0.671875 0
vt 0.734375 0.28125 0
vt 0.734375 0.390625 0
vt 0.453125 0 0
vt 0.515625 0.359375 0
vt 0.546875 0.234375 0
vt 0.546875 0.546875 0
vt 0.609375 0.546875 0
vt 0.546875 0.859375 0
vt 0.609375 0.859375 0
vt 0.28125 0.34375 0
vt 0.203125 0.34375 0
vt 0.75 0.453125 0
vt 0.75 0.515625 0
vt 0.375 0.359375 0
vt 0.375 0.671875 0
vt 0.453125 0.671875 0
vt 0.296875 0.671875 0
vt 0.234375 0.859375 0
vt 0.28125 0.640625 0
vt 0.28125 0.859375 0
vt 0.65625 0.65625 0
vt 0.65625 0.875 0
vt 0.703125 0.65625 0
vt 0.703125 0.875 0
vt 0.75 0.046875 0
vt 0.75 0 0
vt 0.703125 0.046875 0
vt 0.75 0.09375 0
vt 0.703125 0.09375 0
vt 0.609375 0.875 0
vt 0.0625 0.859375 0
vt 0.109375 0.859375 0

# 40 vertex normals
vn 0.93722343 -0.28520668 0.20067237
vn -0.93722343 0.28520668 -0.20067237
vn 0.28186101 0.95836735 0.045676619
vn -0.28186101 -0.95836735 -0.045676619
vn -0.20534512 0.013752521 0.97859299
vn 0.20534512 -0.013752521 -0.97859299
vn 0.98480773 0.17364818 0
vn -0.98480773 -0.17364818 0
vn -0.17364818 0.98480773 0
vn 0.17364818 -0.98480773 0
vn 0 0 1
vn 0 0 -1
vn 0.90630782 -0.091471329 -0.41260052
vn -0.90630782 0.091471329 0.41260052
vn -4.3532952e-10 0.97629601 -0.2164396
vn 4.3532952e-10 -0.97629601 0.2164396
vn 0.42261827 0.1961609 0.88482469
vn -0.42261827 -0.1961609 -0.88482469
vn 0.73727733 0.67559022 0
vn -0.73727733 -0.67559022 0
vn -0.67559022 0.73727733 0
vn 0.67559022 -0.73727733 0
vn 0.76975113 0.28016651 0.57357645
vn -0.76975113 -0.28016651 -0.57357645
vn -0.34202015 0.93969262 2.3318345e-09
vn 0.34202015 -0.93969262 -2.3318345e-09
vn -0.53898555 -0.1961747 0.81915206
vn 0.53898555 0.1961747 -0.81915206
vn 0.99144489 -0.13052619 -1.3092559e-09
vn -0.99144489 0.13052619 1.3092559e-09
vn 0.1274322 0.96794367 -0.2164396
vn -0.1274322 -0.96794367 0.2164396
vn 0.028251039 0.21458794 0.97629601
vn -0.028251039 -0.21458794 -0.97629601
vn 0.94302952 -0.252684 0.2164396
vn -0.94302952 0.252684 -0.2164396
vn 0.25881904 0.96592581 -7.3221912e-10
vn -0.25881904 -0.96592581 7.3221912e-10
vn -0.2090646 0.056018692 0.97629601
vn 0.2090646 -0.056018692 -0.97629601

# Mesh 'Object_0' with 12 faces
g Object_0
usemtl material_0
f  1/1/1 2/2/1 3/3/1
f  2/2/1 4/4/1 3/3/1
f  5/3/2 6/4/2 7/5/2
f  6/4/2 8/6/2 7/5/2
f  5/7/3 7/8/3 3/9/3
f  7/8/3 1/10/3 3/9/3
f  8/7/4 6/11/4 2/9/4
f  6/11/4 4/12/4 2/9/4
f  7/13/5 8/14/5 1/15/5
f  8/14/5 2/16/5 1/15/5
f  3/17/6 4/18/6 5/19/6
f  4/18/6 6/20/6 5/19/6

# Mesh 'Object_1' with 12 faces
g Object_1
usemtl material_0
f  9/21/7 10/22/7 11/23/7
f  10/22/7 12/24/7 11/23/7
f  13/25/8 14/26/8 15/27/8
f  14/26/8 16/28/8 15/27/8
f  13/29/9 15/30/9 11/31/9
f  15/30/9 9/32/9 11/31/9
f  16/29/10 14/33/10 10/31/10
f  14/33/10 12/34/10 10/31/10
f  15/35/11 16/36/11 9/37/11
f  16/36/11 10/38/11 9/37/11
f  11/12/12 12/21/12 13/39/12
f  12/21/12 14/23/12 13/39/12

# Mesh 'Object_2' with 12 faces
g Object_2
usemtl material_0
f  17/18/13 18/40/13 19/41/13
f  18/40/13 20/42/13 19/41/13
f  21/43/14 22/44/14 23/45/14
f  22/44/14 24/46/14 23/45/14
f  21/47/15 23/48/15 19/49/15
f  23/48/15 17/50/15 19/49/15
f  24/51/16 22/52/16 18/53/16
f  22/52/16 20/54/16 18/53/16
f  23/55/17 24/56/17 17/10/17
f  24/56/17 18/57/17 17/10/17
f  19/58/18 20/43/18 21/59/18
f  20/43/18 22/60/18 21/59/18

# Mesh 'Object_3' with 12 faces
g Object_3
usemtl material_1
f  25/61/19 26/62/19 27/63/19
f  26/62/19 28/64/19 27/63/19
f  29/65/20 30/66/20 31/67/20
f  30/66/20 32/68/20 31/67/20
f  29/69/21 31/70/21 27/71/21
f  31/70/21 25/72/21 27/71/21
f  32/73/22 30/74/22 26/75/22
f  30/74/22 28/76/22 26/75/22
f  31/77/11 32/65/11 25/78/11
f  32/65/11 26/67/11 25/78/11
f  27/79/12 28/61/12 29/80/12
f  28/61/12 30/63/12 29/80/12

# Mesh 'Object_4' with 12 faces
g Object_4
usemtl material_1
f  33/81/23 34/82/23 35/83/23
f  34/82/23 36/84/23 35/83/23
f  37/82/24 38/85/24 39/84/24
f  38/85/24 40/86/24 39/84/24
f  37/87/25 39/88/25 35/89/25
f  39/88/25 33/90/25 35/89/25
f  40/91/26 38/92/26 34/93/26
f  38/92/26 36/94/26 34/93/26
f  39/95/27 40/96/27 33/61/27
f  40/96/27 34/62/27 33/61/27
f  35/97/28 36/95/28 37/79/28
f  36/95/28 38/61/28 37/79/28

# Mesh 'Object_5' with 12 faces
g Object_5
usemtl material_1
f  41/96/29 42/98/29 43/99/29
f  42/98/29 44/100/29 43/99/29
f  45/101/30 46/102/30 47/103/30
f  46/102/30 48/104/30 47/103/30
f  45/105/31 47/106/31 43/107/31
f  47/106/31 41/108/31 43/107/31
f  48/109/32 46/110/32 42/106/32
f  46/110/32 44/105/32 42/106/32
f  47/111/33 48/112/33 41/108/33
f  48/112/33 42/107/33 41/108/33
f  43/113/34 44/114/34 45/115/34
f  44/114/34 46/116/34 45/115/34

# Mesh 'Object_6' with 12 faces
g Object_6
usemtl material_1
f  49/117/35 50/118/35 51/119/35
f  50/118/35 52/120/35 51/119/35
f  53/121/36 54/122/36 55/123/36
f  54/122/36 56/124/36 55/123/36
f  53/125/37 55/126/37 51/127/37
f  55/126/37 49/76/37 51/127/37
f  56/128/38 54/129/38 50/70/38
f  54/129/38 52/69/38 50/70/38
f  55/130/39 56/131/39 49/132/39
f  56/131/39 50/133/39 49/132/39
f  51/134/40 52/130/40 53/135/40
f  52/130/40 54/132/40 53/135/40

# Mesh 'Object_7' with 12 faces
g Object_7
usemtl material_0
f  57/2/1 58/35/1 59/17/1
f  58/35/1 60/136/1 59/17/1
f  61/5/2 62/137/2 63/138/2
f  62/137/2 64/139/2 63/138/2
f  61/140/3 63/50/3 59/141/3
f  63/50/3 57/142/3 59/141/3
f  64/143/4 62/144/4 58/39/4
f  62/144/4 60/53/4 58/39/4
f  63/145/5 64/58/5 57/55/5
f  64/58/5 58/146/5 57/55/5
f  59/138/6 60/139/6 61/145/6
f  60/139/6 62/58/6 61/145/6

# Mesh 'Object_8' with 12 faces
g Object_8
usemtl material_0
f  65/147/13 66/148/13 67/57/13
f  66/148/13 68/149/13 67/57/13
f  69/148/14 70/150/14 71/149/14
f  70/150/14 72/151/14 71/149/14
f  69/152/15 71/6/15 67/153/15
f  71/6/15 65/19/15 67/153/15
f  72/154/16 70/155/16 66/54/16
f  70/155/16 68/32/16 66/54/16
f  71/156/17 72/157/17 65/58/17
f  72/157/17 66/158/17 65/58/17
f  67/15/18 68/159/18 69/156/18
f  68/159/18 70/157/18 69/156/18

# Mesh 'Object_9' with 12 faces
g Object_9
usemtl material_0
f  73/27/7 74/160/7 75/161/7
f  74/160/7 76/162/7 75/161/7
f  77/163/8 78/164/8 79/165/8
f  78/164/8 80/166/8 79/165/8
f  77/167/9 79/168/9 75/169/9
f  79/168/9 73/8/9 75/169/9
f  80/167/10 78/170/10 74/169/10
f  78/170/10 76/171/10 74/169/10
f  79/22/11 80/172/11 73/163/11
f  80/172/11 74/164/11 73/163/11
f  75/37/12 76/173/12 77/136/12
f  76/173/12 78/174/12 77/136/12
